<svg width="165" height="60" viewBox="0 0 165 60" fill="none" xmlns="http://www.w3.org/2000/svg">
<g clip-path="url(#clip0_3182_41)">
<path d="M64.9203 0.123808L0 37.9263L5.18889 46.8374L70.1092 9.03498L64.9203 0.123808Z" fill="#12AEAA"/>
<path d="M103.499 -1.80434e-05L15.9646 50.9702L21.1535 59.8814L108.688 8.91118L103.499 -1.80434e-05Z" fill="#12AEAA"/>
<path d="M146.784 9.04498L59.2817 59.8898L54.0928 50.9786L141.549 0.0537109L146.784 9.04498Z" fill="#12AEAA"/>
<path d="M164.664 21.963L99.3412 59.9999L94.1265 51.0443L159.475 13.0518L164.664 21.963Z" fill="#12AEAA"/>
<path d="M66.9388 33.2215L72.1169 51.0448H85.5286L76.9215 27.4087L66.9388 33.2215Z" fill="white"/>
<path d="M63.8937 23.0618L73.3364 17.5634L70.1091 9.03516L57.5878 9.04535L42.1173 51.0446H55.1171L63.8818 23.1039L63.8937 23.0618Z" fill="white"/>
<path d="M107.067 20.132V9.04492H94.1265V27.6673L107.067 20.132Z" fill="white"/>
<path d="M107.067 40.2795V32.0645L94.1265 39.5998V51.044H125.655V40.2795H107.067Z" fill="white"/>
<path d="M159.478 13.0504V9.04492L123.067 9.04494V19.8094H134.832V51.0442H147.773V19.8552L159.478 13.0504Z" fill="white"/>
<path d="M39.2721 37.5617C39.3106 22.8805 17.7394 26.1782 15.4438 20.7802C15.2755 20.3845 15.2512 19.9388 15.3637 19.5238C15.9311 17.4312 18.9823 17.2479 20.7978 17.3852C25.9044 17.6916 25.9498 20.1235 25.889 22.8522L36.5274 16.6568C32.9562 6.66437 15.8097 6.02799 8.45582 11.2126C4.01493 14.0934 1.55314 20.6537 3.93418 26.3837C5.11366 29.0152 7.67955 30.7798 10.3912 31.894L10.3917 31.8942C14.9481 33.809 20.2422 34.5417 24.64 36.5346C26.8512 37.4869 26.7208 39.9789 25.3488 41.3684C23.1633 43.4779 17.1925 43.0973 15.4673 40.8525L5.18888 46.8375C11.0221 52.5194 20.1969 52.4657 25.3328 51.6131C32.7702 50.3847 39.2727 46.3735 39.2721 37.5617H39.2721Z" fill="white"/>
</g>
<defs>
<clipPath id="clip0_3182_41">
<rect width="164.664" height="60" fill="white"/>
</clipPath>
</defs>
</svg>
